# xmcd
#
# Track frame offsets: 
#        150
#        23532
#        47106
#        68550
#        87981
#        105641
#        123413
#        142705
#        162851
#        181752
#        198427
#        219393
#
# Disc length: 3132 seconds
#
# Revision: 1
# Processed by: cddbd v1.5.2PL0 Copyright (c) Steve Scherf et al.
# Submitted via: ExactAudioCopyFreeDBPlugin 1.0
#
DISCID=950c3a0c
DTITLE=曼丽 - 雾之恋-女人三十Ⅱ
DYEAR=1900
DGENRE=A Cappella
TTITLE0=还是觉得你最好
TTITLE1=雾之恋
TTITLE2=还是你懂得爱我
TTITLE3=月半小夜曲
TTITLE4=最后一班渡轮
TTITLE5=眼泪为你流
TTITLE6=心里日记
TTITLE7=酒红色的心
TTITLE8=一颗不变心
TTITLE9=如果下半生
TTITLE10=总有你鼓励
TTITLE11=想爱没有情
EXTD=
EXTT0=
EXTT1=
EXTT2=
EXTT3=
EXTT4=
EXTT5=
EXTT6=
EXTT7=
EXTT8=
EXTT9=
EXTT10=
EXTT11=
PLAYORDER=
